HIERARCHY
ROOT Hips
{
	OFFSET 0.000000 0.000000 0.000000
	CHANNELS 6 Xposition Yposition Zposition Zrotation Yrotation Xrotation 
	JOINT LowerBack
	{
		OFFSET 0.000000 0.000000 0.000000
		CHANNELS 3 Zrotation Yrotation Xrotation
		JOINT Spine
		{
			OFFSET 0.028270 2.035590 -0.193380
			CHANNELS 3 Zrotation Yrotation Xrotation
			JOINT Spine1
			{
				OFFSET 0.056720 2.048850 -0.042750
				CHANNELS 3 Zrotation Yrotation Xrotation
				JOINT Neck
				{
					OFFSET 0.000000 0.000000 0.000000
					CHANNELS 3 Zrotation Yrotation Xrotation
					JOINT Neck1
					{
						OFFSET -0.054170 1.746240 0.172020
						CHANNELS 3 Zrotation Yrotation Xrotation
						JOINT Head
						{
							OFFSET 0.104070 1.761360 -0.123970
							CHANNELS 3 Zrotation Yrotation Xrotation
							End Site
							{
								OFFSET 0.000000 0.000000 0.000000
							}
						}
					}
				}
				JOINT LeftShoulder
				{
					OFFSET 0.000000 0.000000 0.000000
					CHANNELS 3 Zrotation Yrotation Xrotation
					JOINT LeftArm
					{
						OFFSET 3.362410 1.200890 -0.311210
						CHANNELS 3 Zrotation Yrotation Xrotation
						JOINT LeftForeArm
						{
							OFFSET 4.983000 -0.000000 -0.000000
							CHANNELS 3 Zrotation Yrotation Xrotation
							JOINT LeftHand
							{
								OFFSET 3.483560 -0.000000 -0.000000
								CHANNELS 3 Zrotation Yrotation Xrotation
								JOINT LeftFingerBase
								{
									OFFSET 0.000000 0.000000 0.000000
									CHANNELS 3 Zrotation Yrotation Xrotation
									JOINT LeftHandIndex1
									{
										OFFSET 0.715260 -0.000000 -0.000000
										CHANNELS 3 Zrotation Yrotation Xrotation
										End Site
										{
											OFFSET 0.000000 0.000000 0.000000
										}
									}
								}
								JOINT LThumb
								{
									OFFSET 0.000000 0.000000 0.000000
									CHANNELS 3 Zrotation Yrotation Xrotation
									End Site
									{
										OFFSET 0.000000 0.000000 0.000000
									}
								}
							}
						}
					}
				}
				JOINT RightShoulder
				{
					OFFSET 0.000000 0.000000 0.000000
					CHANNELS 3 Zrotation Yrotation Xrotation
					JOINT RightArm
					{
						OFFSET -3.136600 1.374050 -0.404650
						CHANNELS 3 Zrotation Yrotation Xrotation
						JOINT RightForeArm
						{
							OFFSET -5.241900 -0.000000 -0.000000
							CHANNELS 3 Zrotation Yrotation Xrotation
							JOINT RightHand
							{
								OFFSET -3.444170 -0.000000 -0.000000
								CHANNELS 3 Zrotation Yrotation Xrotation
								JOINT RightFingerBase
								{
									OFFSET 0.000000 0.000000 0.000000
									CHANNELS 3 Zrotation Yrotation Xrotation
									JOINT RightHandIndex1
									{
										OFFSET -0.622530 -0.000000 -0.000000
										CHANNELS 3 Zrotation Yrotation Xrotation
										End Site
										{
											OFFSET 0.000000 0.000000 0.000000
										}
									}
								}
								JOINT RThumb
								{
									OFFSET 0.000000 0.000000 0.000000
									CHANNELS 3 Zrotation Yrotation Xrotation
									End Site
									{
										OFFSET 0.000000 0.000000 0.000000
									}
								}
							}
						}
					}
				}
			}
		}
	}
}
}
MOTION
Frames: 11
Frame Time: 0.008333
-0.136799 17.121884 -1.595624 128.754441 -76.405800 -131.041118 -11.357450 -0.412359 7.399827 -2.941829 0.229162 -2.072449 -6.654453 0.174223 -1.747390 9.764427 -3.062695 -4.435761 -3.994702 -0.320333 0.614377 0.000000 0.000000 0.000000 -6.247724 3.149262 2.097302 -73.492561 3.449780 8.574433 -3.081298 -23.915615 0.001705 3.104784 -3.116919 -0.084819 -0.022562 -0.002185 -0.000000 0.000000 0.000000 0.000000 0.000000 0.000000 0.000000 17.341242 0.995426 1.122387 74.120403 13.583597 10.797085 2.635094 25.722531 0.010289 0.786607 9.192795 0.061293 0.044278 -0.150859 0.000000 0.000000 0.000000 0.000000 0.000000 0.000000 0.000000 
-0.134197 17.112568 -1.597198 129.418050 -76.396296 -131.827028 -11.158148 -0.444371 7.375390 -2.901867 0.194064 -2.069741 -6.676400 0.139654 -1.716489 9.788107 -3.118084 -4.453656 -4.024497 -0.322286 0.611608 0.000000 0.000000 0.000000 -6.312052 3.339793 2.071777 -73.540664 3.473680 8.775680 -3.067056 -24.169365 0.001726 3.006194 -3.206128 -0.084518 -0.022255 -0.002295 -0.000000 0.000000 0.000000 0.000000 0.000000 0.000000 0.000000 17.527118 0.920806 1.093875 74.184210 13.570746 11.174641 2.661911 25.683119 0.010741 1.105494 9.125693 0.086891 0.042494 -0.148744 0.000000 0.000000 0.000000 0.000000 0.000000 0.000000 0.000000 
-0.131282 17.104141 -1.600598 129.561191 -76.444904 -132.168191 -11.009431 -0.489943 7.439364 -2.874853 0.145234 -2.048934 -6.699400 0.092998 -1.699363 9.831104 -3.211666 -4.466156 -4.053628 -0.324186 0.609190 0.000000 0.000000 0.000000 -6.297485 3.398962 2.054031 -73.596210 3.506161 8.993646 -3.057712 -24.338882 0.001752 2.909878 -3.283351 -0.083817 -0.022073 -0.002419 -0.000000 0.000000 0.000000 0.000000 0.000000 0.000000 0.000000 17.727750 0.794739 1.070827 74.268494 13.516197 11.420995 2.676035 25.671750 0.010995 1.310583 9.123944 0.103590 0.041004 -0.147384 0.000000 0.000000 0.000000 0.000000 0.000000 0.000000 0.000000 
-0.128386 17.097417 -1.606035 129.130959 -76.566827 -131.986015 -10.905714 -0.553613 7.568316 -2.858934 0.078434 -2.014944 -6.722548 0.029645 -1.694557 9.888288 -3.335714 -4.469442 -4.081516 -0.326061 0.608579 0.000000 0.000000 0.000000 -6.213179 3.328078 2.044065 -73.649830 3.544392 9.231746 -3.054348 -24.418215 0.001780 2.809599 -3.340297 -0.082315 -0.022053 -0.002565 -0.000000 0.000000 0.000000 0.000000 0.000000 0.000000 0.000000 17.933549 0.620542 1.050349 74.379290 13.406298 11.524985 2.677122 25.679550 0.011054 1.389994 9.191893 0.110990 0.039927 -0.146731 0.000000 0.000000 0.000000 0.000000 0.000000 0.000000 0.000000 
-0.125916 17.093019 -1.613488 128.134756 -76.768778 -131.257884 -10.832715 -0.637070 7.732062 -2.850471 -0.008029 -1.973909 -6.745077 -0.052580 -1.698887 9.953207 -3.482425 -4.461832 -4.107421 -0.327913 0.610748 0.000000 0.000000 0.000000 -6.072916 3.141993 2.040511 -73.692569 3.582294 9.490025 -3.057615 -24.405446 0.001811 2.700012 -3.369472 -0.079812 -0.022242 -0.002740 -0.000000 0.000000 0.000000 0.000000 0.000000 0.000000 0.000000 18.133262 0.404066 1.029384 74.521163 13.231253 11.484153 2.666131 25.696246 0.010930 1.343399 9.326569 0.108690 0.039335 -0.146658 0.000000 0.000000 0.000000 0.000000 0.000000 0.000000 0.000000 
-0.124391 17.091434 -1.622745 126.627694 -77.041581 -130.010684 -10.775740 -0.738007 7.900946 -2.846033 -0.112005 -1.931792 -6.766394 -0.152019 -1.708554 10.019398 -3.644377 -4.443041 -4.130729 -0.329740 0.616237 0.000000 0.000000 0.000000 -5.893772 2.863331 2.041050 -73.716282 3.615656 9.761008 -3.067645 -24.305836 0.001846 2.576090 -3.364904 -0.076108 -0.022665 -0.002974 -0.000000 0.000000 0.000000 0.000000 0.000000 0.000000 0.000000 18.316944 0.153644 1.005773 74.696139 12.988178 11.307277 2.645131 25.709547 0.010644 1.180726 9.518452 0.097191 0.039256 -0.146983 0.000000 0.000000 0.000000 0.000000 0.000000 0.000000 0.000000 
-0.124438 17.092760 -1.633368 124.758323 -77.356855 -128.380376 -10.718917 -0.847595 8.053353 -2.841859 -0.224932 -1.892887 -6.784959 -0.260488 -1.718533 10.078145 -3.808713 -4.415461 -4.150000 -0.331432 0.624726 0.000000 0.000000 0.000000 -5.692761 2.541026 2.042497 -73.717346 3.623527 10.047398 -3.084429 -24.116322 0.001887 2.437353 -3.325575 -0.071204 -0.023402 -0.003245 -0.000000 0.000000 0.000000 0.000000 0.000000 0.000000 0.000000 18.468766 -0.110279 0.976816 74.907514 12.671772 10.997169 2.617066 25.713211 0.010227 0.927693 9.748150 0.077593 0.039610 -0.147498 0.000000 0.000000 0.000000 0.000000 0.000000 0.000000 0.000000 
-0.126298 17.096999 -1.644916 122.673477 -77.677316 -126.504646 -10.657711 -0.956076 8.172842 -2.836936 -0.337173 -1.860396 -6.799538 -0.368685 -1.725942 10.123438 -3.976494 -4.381914 -4.164690 -0.332953 0.635667 0.000000 0.000000 0.000000 -5.488979 2.196993 2.041474 -73.691674 3.613864 10.319198 -3.106606 -23.861770 0.001928 2.282664 -3.248562 -0.065199 -0.024391 -0.003634 -0.000000 0.000000 0.000000 0.000000 0.000000 0.000000 0.000000 18.582300 -0.382477 0.943811 75.150596 12.298373 10.595268 2.585651 25.691157 0.009725 0.605223 9.997353 0.050793 0.040418 -0.148013 0.000000 0.000000 0.000000 0.000000 0.000000 0.000000 0.000000 
-0.130518 17.103711 -1.656594 120.624004 -77.963987 -124.636598 -10.584450 -1.050728 8.250855 -2.829019 -0.436126 -1.835806 -6.807614 -0.464208 -1.726586 10.146110 -4.130070 -4.346535 -4.173136 -0.334135 0.647970 0.000000 0.000000 0.000000 -5.298008 1.891957 2.035695 -73.641967 3.559690 10.578332 -3.133605 -23.539604 0.001970 2.118445 -3.139790 -0.058493 -0.025710 -0.004064 -0.000000 0.000000 0.000000 0.000000 0.000000 0.000000 0.000000 18.640666 -0.632691 0.905282 75.425156 11.863209 10.100277 2.554406 25.647894 0.009193 0.256214 10.236837 0.020194 0.041482 -0.148350 0.000000 0.000000 0.000000 0.000000 0.000000 0.000000 0.000000 
-0.137383 17.112432 -1.667670 118.827901 -78.188453 -122.993759 -10.498493 -1.122567 8.280856 -2.817443 -0.512648 -1.819976 -6.807406 -0.538041 -1.717730 10.141045 -4.273134 -4.314681 -4.174696 -0.334894 0.660241 0.000000 0.000000 0.000000 -5.135158 1.650360 2.022639 -73.570009 3.466448 10.795403 -3.163512 -23.175394 0.002009 1.951060 -3.003382 -0.051586 -0.027294 -0.004556 -0.000000 0.000000 0.000000 0.000000 0.000000 0.000000 0.000000 18.638854 -0.857240 0.863304 75.721806 11.387330 9.561251 2.527179 25.574955 0.008692 -0.093030 10.445031 -0.011906 0.042808 -0.148380 0.000000 0.000000 0.000000 0.000000 0.000000 0.000000 0.000000 
-0.146954 17.122545 -1.677425 117.473640 -78.336301 -121.766101 -10.399108 -1.166613 8.260682 -2.801401 -0.561512 -1.812930 -6.797518 -0.585001 -1.697484 10.104918 -4.398303 -4.290832 -4.169011 -0.335149 0.671160 0.000000 0.000000 0.000000 -5.009464 1.504332 2.001962 -73.479689 3.324937 10.958552 -3.195067 -22.781185 0.002042 1.791714 -2.848658 -0.044981 -0.029139 -0.005035 -0.000000 0.000000 0.000000 0.000000 0.000000 0.000000 0.000000 18.573246 -1.041787 0.818539 76.031942 10.877429 8.997713 2.506577 25.479150 0.008271 -0.408253 10.598428 -0.041907 0.044257 -0.148005 0.000000 0.000000 0.000000 0.000000 0.000000 0.000000 0.000000 
